# xmcd
#
# Track frame offsets:
#	150
#	25786
#	30334
#	34431
#	39242
#	43528
#	48178
#	52403
#	56583
#	60866
#	65245
#	69815
#	74471
#	78967
#	84118
#	88247
#	92642
#	96996
#	101531
#	106195
#	111632
#	115420
#	119700
#	125198
#	129987
#	134679
#	139303
#	143694
#	148590
#	153369
#	157930
#	162675
#	166892
#	171239
#	175747
#	180303
#	184950
#	189495
#	194159
#	198598
#	203492
#	208326
#	213169
#	216872
#	221553
#	226033
#	231287
#	236316
#	240975
#	245515
#	250365
#	255008
#	259941
#	264772
#	269622
#	274241
#	278943
#	284099
#	288230
#	293102
#	297703
#	302466
#	307004
#	311397
#	317163
#	320409
#	325573
#
# Disc length: 4423 seconds
#
# Revision: 1
# Processed by: cddbd v1.5.1PL0 Copyright (c) Steve Scherf et al.
# Submitted via: CDex 1.50Beta5
#
DISCID=f9114543
DTITLE=デ-タ-ベ-ス3000 - A(レベル1-3)
DYEAR=1900
DGENRE=
TTITLE0=1 intro
TTITLE1=2 Level 1
TTITLE2=3 Level 1
TTITLE3=4 Level 1
TTITLE4=5 Level 1
TTITLE5=6 Level 1
TTITLE6=7 Level 1
TTITLE7=8 Level 1
TTITLE8=9 Level 1
TTITLE9=10 Level 1
TTITLE10=11 Level 1
TTITLE11=12 Level 1
TTITLE12=13 Level 1
TTITLE13=14 Level 1
TTITLE14=15 Level 1
TTITLE15=16 Level 1
TTITLE16=17 Level 1
TTITLE17=18 Level 1
TTITLE18=19 Level 1
TTITLE19=20 Level 1
TTITLE20=21 Level 1
TTITLE21=22 Level 1
TTITLE22=23 Level 1
TTITLE23=24 Level 2
TTITLE24=25 Level 2
TTITLE25=26 Level 2
TTITLE26=27 Level 2
TTITLE27=28 Level 2
TTITLE28=29 Level 2
TTITLE29=30 Level 2
TTITLE30=31 Level 2
TTITLE31=32 Level 2
TTITLE32=33 Level 2
TTITLE33=34 Level 2
TTITLE34=35 Level 2
TTITLE35=36 Level 2
TTITLE36=37 Level 2
TTITLE37=38 Level 2
TTITLE38=39 Level 2
TTITLE39=40 Level 2
TTITLE40=41 Level 2
TTITLE41=42 Level 2
TTITLE42=43 Level 2
TTITLE43=44 Level 2
TTITLE44=45 Level 2
TTITLE45=46 Level 2
TTITLE46=47 Level 3
TTITLE47=48 Level 3
TTITLE48=49 Level 3
TTITLE49=50 Level 3
TTITLE50=51 Level 3
TTITLE51=52 Level 3
TTITLE52=53 Level 3
TTITLE53=54 Level 3
TTITLE54=55 Level 3
TTITLE55=56 Level 3
TTITLE56=57 Level 3
TTITLE57=58 Level 3
TTITLE58=59 Level 3
TTITLE59=60 Level 3
TTITLE60=61 Level 3
TTITLE61=62 Level 3
TTITLE62=63 Level 3
TTITLE63=64 Level 3
TTITLE64=65 Level 3
TTITLE65=66 Level 2
TTITLE66=67 Level 2
EXTD=
EXTT0=
EXTT1=
EXTT2=
EXTT3=
EXTT4=
EXTT5=
EXTT6=
EXTT7=
EXTT8=
EXTT9=
EXTT10=
EXTT11=
EXTT12=
EXTT13=
EXTT14=
EXTT15=
EXTT16=
EXTT17=
EXTT18=
EXTT19=
EXTT20=
EXTT21=
EXTT22=
EXTT23=
EXTT24=
EXTT25=
EXTT26=
EXTT27=
EXTT28=
EXTT29=
EXTT30=
EXTT31=
EXTT32=
EXTT33=
EXTT34=
EXTT35=
EXTT36=
EXTT37=
EXTT38=
EXTT39=
EXTT40=
EXTT41=
EXTT42=
EXTT43=
EXTT44=
EXTT45=
EXTT46=
EXTT47=
EXTT48=
EXTT49=
EXTT50=
EXTT51=
EXTT52=
EXTT53=
EXTT54=
EXTT55=
EXTT56=
EXTT57=
EXTT58=
EXTT59=
EXTT60=
EXTT61=
EXTT62=
EXTT63=
EXTT64=
EXTT65=
EXTT66=
PLAYORDER=
